<?xml version="1.0" encoding="utf-8"?>
<!-- Generator: Adobe Illustrator 27.0.0, SVG Export Plug-In . SVG Version: 6.00 Build 0)  -->
<svg version="1.1" id="Menu_x5F_Aircon" xmlns="http://www.w3.org/2000/svg" xmlns:xlink="http://www.w3.org/1999/xlink" x="0px"
	 y="0px" viewBox="0 0 44 41.71" style="enable-background:new 0 0 44 41.71;" xml:space="preserve">
<style type="text/css">
	.st0{fill:#FFFFFF;}
</style>
<g>
	<rect x="21" y="28" class="st0" width="2" height="13"/>
	<path class="st0" d="M11,28.05c0.15,2.94-0.51,5.88-1.88,8.48c-0.75,1.39-1.7,2.65-2.82,3.76l1.4,1.42
		c1.27-1.25,2.34-2.67,3.18-4.24c1.55-2.92,2.28-6.21,2.11-9.52L11,28.05z"/>
	<path class="st0" d="M33,28.05l-2-0.1c-0.16,3.3,0.57,6.59,2.12,9.52c0.84,1.56,1.91,2.99,3.18,4.24l1.4-1.42
		c-1.12-1.11-2.07-2.38-2.82-3.76C33.5,33.93,32.85,30.99,33,28.05z"/>
	<path class="st0" d="M39.85,0H4.15C1.86,0,0,1.86,0,4.15v13.7C0,20.14,1.86,22,4.15,22H39.8c2.32,0,4.2-1.88,4.2-4.2V4.15
		C44,1.86,42.14,0,39.85,0z M42,17.8c0,1.21-0.99,2.2-2.2,2.2H4.15C2.96,20,2,19.04,2,17.85V4.15C2,2.96,2.96,2,4.15,2h35.7
		C41.04,2,42,2.96,42,4.15V17.8z"/>
	<polygon class="st0" points="6,18 8,18 8,14 36,14 36,18 38,18 38,12 6,12 	"/>
	<circle class="st0" cx="37" cy="6" r="1"/>
</g>
</svg>
