<?xml version="1.0" encoding="utf-8"?>
<!-- Generator: Adobe Illustrator 27.5.0, SVG Export Plug-In . SVG Version: 6.00 Build 0)  -->
<svg version="1.1" id="Menu_x5F_charger" xmlns="http://www.w3.org/2000/svg" xmlns:xlink="http://www.w3.org/1999/xlink" x="0px"
	 y="0px" viewBox="0 0 44 46" style="enable-background:new 0 0 44 46;" xml:space="preserve">
<style type="text/css">
	.st0{fill:#FFFFFF;}
</style>
<path class="st0" d="M42,13V9h-8v4h-2v9h5v8.9C37,38.1,31,44,23.7,44h-1.3C15,44,9,38.1,9,30.9V22h7v-3h6v-4h4v-2h-4V9h4V7h-4V3h-6
	V0H0v22h7v8.9C7,39.2,13.9,46,22.3,46h1.3C32.1,46,39,39.2,39,30.9V22h5v-9H42z M20,5v12h-4V5H20z M2,2h12v18H2V2z M36,11h4v2h-4V11
	z M42,20h-8v-5h8V20z"/>
</svg>
