<?xml version="1.0" encoding="utf-8"?>
<!-- Generator: Adobe Illustrator 27.5.0, SVG Export Plug-In . SVG Version: 6.00 Build 0)  -->
<svg version="1.1" id="Menu_x5F_photovoltaic" xmlns="http://www.w3.org/2000/svg" xmlns:xlink="http://www.w3.org/1999/xlink"
	 x="0px" y="0px" viewBox="0 0 59.81 44.35" style="enable-background:new 0 0 59.81 44.35;" xml:space="preserve">
<style type="text/css">
	.st0{fill:#FFFFFF;}
</style>
<g>
	<g>
		<polygon class="st0" points="37.51,31 35.51,31 35.51,40 21.51,40 21.51,42 51.51,42 51.51,40 37.51,40 		"/>
		<path class="st0" d="M21.77,0l-8.59,29h39.11l7.52-29H21.77z M29.9,18l2.33-7h11.12l-2.07,7H29.9z M40.69,20l-2.07,7H26.9l2.33-7
			H40.69z M27.79,18h-9.27l2.07-7h9.53L27.79,18z M32.9,9l2.33-7h10.79l-2.07,7H32.9z M45.45,11h9.44l-1.81,7h-9.7L45.45,11z
			 M46.04,9l2.07-7h9.11l-1.81,7H46.04z M23.26,2h9.87l-2.33,7h-9.61L23.26,2z M17.93,20h9.2l-2.33,7h-8.94L17.93,20z M50.74,27
			H40.7l2.07-7h9.78L50.74,27z"/>
	</g>
	<g>
		<polygon class="st0" points="5.54,13.65 5.54,15.65 15.04,15.65 15.64,13.65 		"/>
		<path class="st0" d="M17.57,31v10.09c0,0.7-0.66,1.26-1.46,1.26H3.46C2.66,42.35,2,41.78,2,41.09V20.87c0-0.7,0.66-1.26,1.46-1.26
			h10.41l0.59-2h-11C1.55,17.61,0,19.07,0,20.87v20.22c0,1.8,1.55,3.26,3.46,3.26H16.1c1.91,0,3.46-1.46,3.46-3.26V31H17.57z"/>
		<path class="st0" d="M13.57,31v1.7H6v-3.44h5.01l0.65-2.21H6v-3.44h6.69l0.59-2H4v18.74h11.57V31H13.57z M13.57,38.35H6v-3.44
			h7.57V38.35z"/>
	</g>
</g>
</svg>
