<?xml version="1.0" encoding="utf-8"?>
<!-- Generator: Adobe Illustrator 27.0.0, SVG Export Plug-In . SVG Version: 6.00 Build 0)  -->
<svg version="1.1" id="Menu_x5F_kitchen" xmlns="http://www.w3.org/2000/svg" xmlns:xlink="http://www.w3.org/1999/xlink" x="0px"
	 y="0px" viewBox="0 0 51.98 41.98" style="enable-background:new 0 0 51.98 41.98;" xml:space="preserve">
<style type="text/css">
	.st0{fill:#FFFFFF;}
</style>
<g>
	<circle class="st0" cx="4.99" cy="25.37" r="1.11"/>
	<circle class="st0" cx="9.33" cy="25.37" r="1.11"/>
	<circle class="st0" cx="14.05" cy="25.37" r="1.11"/>
	<path class="st0" d="M51.98,41.98H33.33V0h18.65V41.98z M35.32,40H50V1.98H35.32V40z"/>
	<rect x="37.49" y="23.27" class="st0" width="10.33" height="1.98"/>
	<rect x="20.86" y="26.37" class="st0" width="10.27" height="1.98"/>
	<rect x="20.86" y="33.19" class="st0" width="10.27" height="1.98"/>
	<path class="st0" d="M35.32,41.98H16.67V20h18.65V41.98z M18.65,40h14.68V21.98H18.65V40z"/>
	<path class="st0" d="M18.65,41.98H0V20h18.65V41.98z M1.98,40h14.68V21.98H1.98V40z"/>
	<path class="st0" d="M14.85,37.83H3.8V28.7h11.06V37.83z M5.21,36.41h8.22v-6.29H5.21V36.41z"/>
	<path class="st0" d="M18.65,12.98H0V8.86l4.42-3.67V0h9.82v5.19l4.42,3.67V12.98z M1.98,11h14.68V9.79l-4.42-3.67V1.98H6.4v4.14
		L1.98,9.79V11z"/>
</g>
</svg>
