<?xml version="1.0" encoding="utf-8"?>
<!-- Generator: Adobe Illustrator 27.0.0, SVG Export Plug-In . SVG Version: 6.00 Build 0)  -->
<svg version="1.1" id="Menu_x5F_mowing-robot" xmlns="http://www.w3.org/2000/svg" xmlns:xlink="http://www.w3.org/1999/xlink"
	 x="0px" y="0px" viewBox="0 0 49.63 27.58" style="enable-background:new 0 0 49.63 27.58;" xml:space="preserve">
<style type="text/css">
	.st0{fill:#FFFFFF;}
</style>
<g>
	<path class="st0" d="M44.3,3.94L12.25,0.05c-1.6-0.2-3.17,0.25-4.43,1.25c-1.29,1.02-2.11,2.49-2.3,4.14L5.51,7.57h2.21V5.63
		c0.13-1.04,0.65-1.96,1.47-2.6c0.8-0.63,1.8-0.91,2.8-0.79l32.05,3.89c1.93,0.23,3.38,1.93,3.38,3.96v9.64L19.85,19.7l0,2.21
		l29.78,0.02V10.08C49.63,6.95,47.34,4.3,44.3,3.94z"/>
	<path class="st0" d="M8.82,9.56C3.96,9.56,0,13.6,0,18.57s3.96,9.01,8.82,9.01s8.82-4.04,8.82-9.01S13.69,9.56,8.82,9.56z
		 M8.82,25.37c-3.65,0-6.62-3.05-6.62-6.8s2.97-6.8,6.62-6.8s6.62,3.05,6.62,6.8S12.47,25.37,8.82,25.37z"/>
	<rect x="28.67" y="24.25" class="st0" width="18.75" height="2.21"/>
</g>
</svg>
