<?xml version="1.0" encoding="utf-8"?>
<!-- Generator: Adobe Illustrator 27.5.0, SVG Export Plug-In . SVG Version: 6.00 Build 0)  -->
<svg version="1.1" id="Menu_x5F_smart-lighting" xmlns="http://www.w3.org/2000/svg" xmlns:xlink="http://www.w3.org/1999/xlink"
	 x="0px" y="0px" viewBox="0 0 44 46" style="enable-background:new 0 0 44 46;" xml:space="preserve">
<style type="text/css">
	.st0{fill:#FFFFFF;}
</style>
<g>
	<rect x="40" y="17" class="st0" width="4" height="2"/>
	<rect x="35.47" y="5.46" transform="matrix(0.707 -0.7072 0.7072 0.707 6.4115 28.3959)" class="st0" width="4" height="2"/>
	<rect x="25" y="0" class="st0" width="2" height="4"/>
	<rect x="13.43" y="4.31" transform="matrix(0.7071 -0.7071 0.7071 0.7071 -0.2397 12.0519)" class="st0" width="2" height="4"/>
	<path class="st0" d="M29,27.42l0.67-0.24c3.87-1.37,6.37-5.01,6.37-9.27c0-5.43-4.42-9.85-9.85-9.85c0,0-0.01,0-0.01,0
		c-3,0-5.8,1.34-7.67,3.69l-1.56-1.25c2.26-2.82,5.62-4.44,9.23-4.44c0,0,0.01,0,0.01,0c6.53,0,11.85,5.31,11.85,11.85
		c0,4.88-2.74,9.08-7.04,10.9V35h-9v-2h7L29,27.42z"/>
	<rect x="22" y="37" class="st0" width="9" height="2"/>
	<path class="st0" d="M0,17l0,25c0,2.21,1.79,4,4,4h12c2.21,0,4-1.79,4-4V17c0-2.21-1.79-4-4-4H4C1.79,13,0,14.79,0,17z M2,17
		c0-1.1,0.9-2,2-2h12c1.1,0,2,0.9,2,2v25c0,1.1-0.9,2-2,2H4c-1.1,0-2-0.9-2-2V17z"/>
	<rect x="9" y="22" class="st0" width="2" height="5"/>
	<path class="st0" d="M6.27,24.31l1.24,1.57C6.55,26.64,6,27.78,6,29c0,2.21,1.79,4,4,4s4-1.79,4-4c0-1.22-0.55-2.36-1.51-3.12
		l1.24-1.57C15.17,25.45,16,27.16,16,29c0,3.31-2.69,6-6,6s-6-2.69-6-6C4,27.16,4.83,25.46,6.27,24.31z"/>
</g>
</svg>
