<?xml version="1.0" encoding="utf-8"?>
<!-- Generator: Adobe Illustrator 27.5.0, SVG Export Plug-In . SVG Version: 6.00 Build 0)  -->
<svg version="1.1" id="Menu_x5F_smart-tv" xmlns="http://www.w3.org/2000/svg" xmlns:xlink="http://www.w3.org/1999/xlink" x="0px"
	 y="0px" viewBox="0 0 58.39 49.17" style="enable-background:new 0 0 58.39 49.17;" xml:space="preserve">
<style type="text/css">
	.st0{fill:#FFFFFF;}
</style>
<g>
	<g>
		<path class="st0" d="M16,16.17H4c-2.21,0-4,1.79-4,4v25c0,2.21,1.79,4,4,4h12c2.21,0,4-1.79,4-4v-25
			C20,17.96,18.21,16.17,16,16.17z M18,45.17c0,1.1-0.9,2-2,2H4c-1.1,0-2-0.9-2-2v-25c0-1.1,0.9-2,2-2h12c1.1,0,2,0.9,2,2V45.17z"/>
		<rect x="9" y="25.17" class="st0" width="2" height="5"/>
		<path class="st0" d="M13.73,27.48l-1.24,1.57c0.96,0.76,1.51,1.9,1.51,3.12c0,2.21-1.79,4-4,4s-4-1.79-4-4
			c0-1.22,0.55-2.36,1.51-3.12l-1.24-1.57C4.83,28.62,4,30.33,4,32.17c0,3.31,2.69,6,6,6s6-2.69,6-6
			C16,30.33,15.17,28.62,13.73,27.48z"/>
	</g>
	<g>
		<polygon class="st0" points="36.39,39 34.39,39 34.39,42 24.39,42 24.39,44 46.39,44 46.39,42 36.39,42 		"/>
		
			<rect x="47.78" y="28.12" transform="matrix(0.7081 -0.7061 0.7061 0.7081 -5.7365 44.3549)" class="st0" width="5.99" height="2"/>
		
			<rect x="40.95" y="23.48" transform="matrix(0.7079 -0.7063 0.7063 0.7079 -3.5769 40.3067)" class="st0" width="11.99" height="2"/>
		<path class="st0" d="M14.39,14.13V4c0-1.1,0.9-2,2-2h38c1.1,0,2,0.9,2,2v29c0,1.1-0.9,2-2,2H22.04v2h32.35c2.21,0,4-1.79,4-4V4
			c0-2.21-1.79-4-4-4h-38c-2.21,0-4,1.79-4,4v10.13H14.39z"/>
	</g>
</g>
</svg>
